# xmcd
#
# Track frame offsets:
#  150
#  16507
#  32635
#  52892
#  73992
#  92740
#  110532
#  127350
#  145452
#  159017
#  177085
#  207602
#  225612
#  242067
#
# Disc length: 3435 seconds
#
# Revision: 0
# Processed by: cddbd v1.5.1PL2 Copyright (c) Steve Scherf et al.
# Submitted via: Collectorz.com_Music_Collector 6.10
#
DISCID=bf0d690e
DTITLE=Various Artist - Vamos A La Playa
DYEAR=2000
DGENRE=Compilation
TTITLE0=Swing band - Mambo N°5
TTITLE1=Aurora Navarro - Mujer Latina
TTITLE2=Aurora Navarro - Gozate la vida
TTITLE3=Banda Caliente - De Hombre a Mujer
TTITLE4=Banda Caliente - Salomé
TTITLE5=Conflicto - Vengan Ballando
TTITLE6=Cool Dance - Ballamos
TTITLE7=Cana de Azucar - Livin' la vida loca
TTITLE8=Swing band - I got a girl
TTITLE9=Cool Sensation - Livin' in jam
TTITLE10=Summer System - Baïlando
TTITLE11=Summer System - Dam Dam Déo
TTITLE12=DJ In the Night - My heart goes boom
TTITLE13=Cool Sensation - Blue
EXTD=
EXTT0=
EXTT1=
EXTT2=
EXTT3=
EXTT4=
EXTT5=
EXTT6=
EXTT7=
EXTT8=
EXTT9=
EXTT10=
EXTT11=
EXTT12=
EXTT13=
PLAYORDER=
